PathFileType	4	(X/Y/Z)	c:/Users/goper/Files/vsCode/490R/osim_files/A05/A05_Slow_03.trc
DataRate	CameraRate	NumFrames	NumMarkers	Units                	OrigDataRate	OrigDataStartFrame	OrigNumFrames
250.00	250.00	5	36	mm	250.0	1045	2785
                Frame#	Time	LPSIS			LASIS			LTH1			LTH2			LTH3			LTH4			LLFE			LMFE			LSH1			LSH2			LSH3			LSH4			LLMAL			LMMAL			LCAL			LMTP5			LTOE			LMTP1			RPSIS			RASIS			RTH1			RTH2			RTH3			RTH4			RLFE			RMFE			RSH1			RSH2			RSH3			RSH4			RLMAL			RMMAL			RCAL			RMTP1			RTOE			RMTP5		
		X1	Y1	Z1	X2	Y2	Z2	X3	Y3	Z3	X4	Y4	Z4	X5	Y5	Z5	X6	Y6	Z6	X7	Y7	Z7	X8	Y8	Z8	X9	Y9	Z9	X10	Y10	Z10	X11	Y11	Z11	X12	Y12	Z12	X13	Y13	Z13	X14	Y14	Z14	X15	Y15	Z15	X16	Y16	Z16	X17	Y17	Z17	X18	Y18	Z18	X19	Y19	Z19	X20	Y20	Z20	X21	Y21	Z21	X22	Y22	Z22	X23	Y23	Z23	X24	Y24	Z24	X25	Y25	Z25	X26	Y26	Z26	X27	Y27	Z27	X28	Y28	Z28	X29	Y29	Z29	X30	Y30	Z30	X31	Y31	Z31	X32	Y32	Z32	X33	Y33	Z33	X34	Y34	Z34	X35	Y35	Z35	X36	Y36	Z36

1045	4.17600	404.81256	1020.76074	382.79001	211.67114	956.71118	479.59122	364.99524	688.64941	516.64447	353.15173	645.65729	517.52997	305.35117	696.37512	535.32928	302.80103	651.54712	530.73169	299.25018	474.34061	501.78583	301.83267	475.80283	401.86929	339.01071	380.24899	509.33023	342.53885	335.61749	513.71533	280.93286	371.01843	498.39365	291.87698	325.10605	502.86273	335.64847	112.33344	501.06485	342.03574	115.12094	413.47107	420.61401	63.52351	456.72220	204.54175	48.52175	516.04956	158.89075	72.87284	452.42786	203.64616	65.49692	406.97110	404.81674	1024.39673	301.16568	229.25009	990.14990	188.96246	141.14345	649.81482	87.91948	119.64474	614.11432	93.64197	87.99588	675.95435	111.07730	75.84702	632.88110	113.43128	134.30499	570.67151	99.68278	104.96413	542.22748	234.87918	240.47134	340.01617	93.90160	255.91643	295.58868	103.10331	183.70845	315.80542	100.40258	207.37164	272.73611	106.12479	289.21918	187.20219	118.88612	234.43797	197.44624	204.09894	351.35660	158.62451	197.88770	152.22903	86.42911	189.52992	121.94327	89.76032	135.07323	192.37949	82.82896	79.20376
1046	4.18000	401.76053	1020.76471	382.80658	208.32747	956.43005	479.27667	362.78174	688.92688	516.61200	351.05743	645.84961	517.48566	302.97021	696.25861	535.22589	300.63922	651.56073	530.68622	297.78961	474.37543	501.81610	300.32645	475.87225	401.84052	337.80353	380.37836	509.32745	341.48148	335.78635	513.71338	279.66260	370.83875	498.36703	290.97195	325.06458	502.91064	335.40485	112.37180	501.11508	343.29800	116.66501	412.53561	420.49576	63.62993	456.73767	204.11571	48.37022	515.47699	158.74518	72.73615	452.45050	203.48523	65.35109	407.00711	401.78046	1024.31250	301.18149	226.54219	990.18347	188.86330	137.80246	649.95001	87.82123	116.08242	614.28778	93.61998	84.96612	676.34235	111.12544	72.36248	633.22870	113.62462	130.67207	570.76251	99.64135	101.34896	543.15167	234.58524	232.40640	337.70087	93.27566	247.09612	292.92822	102.32919	175.29317	314.68591	99.61861	198.87590	271.06424	105.26581	278.04968	183.74432	117.86322	222.30359	194.68044	202.34155	339.31247	153.54019	196.93108	138.81096	85.74039	188.20190	108.58689	89.74255	133.63477	179.13635	81.40618	77.78298
1047	4.18400	398.77679	1020.72223	382.81158	205.18678	955.73798	478.96777	360.60818	689.12268	516.59094	348.97372	646.06079	517.44708	300.74603	696.25232	535.21710	298.58163	651.58350	530.65741	296.25143	474.34540	501.75696	298.83185	475.91620	401.81363	336.61398	380.47263	509.32684	340.48492	335.96265	513.68866	278.60349	370.78497	498.39221	289.94016	324.97751	502.95871	335.19119	112.37376	501.12872	343.16946	116.80333	412.51819	420.39853	63.79113	456.78561	204.04771	48.25503	515.49756	158.59599	72.52839	452.45816	203.73936	65.31863	406.92606	398.77124	1024.25439	301.17905	223.55025	990.02850	188.59219	134.54555	649.98578	87.66107	112.54428	614.39636	93.61995	81.86861	676.66583	111.17345	69.08317	633.54181	113.81155	127.14066	570.73987	99.57232	97.62762	542.99921	234.57040	224.45718	335.33884	92.64641	238.18137	290.21130	101.54147	166.76157	313.37616	98.82127	189.36020	269.19122	104.26038	266.50903	180.20172	116.86118	212.02071	192.38536	201.80118	327.24695	148.52280	195.98442	124.87922	85.20835	186.03088	95.34220	89.75626	132.07123	165.83298	80.04996	76.40204
1048	4.18800	395.94574	1020.75134	382.76910	202.08470	957.03436	479.45447	358.32242	689.29419	516.49390	346.87894	646.23071	517.39508	298.62964	696.27014	535.26202	296.14728	651.63928	530.40131	294.87570	474.38248	501.76724	297.38000	475.94608	401.76892	335.50354	380.57031	509.29636	339.52103	336.14301	513.67700	277.49966	370.73157	498.48407	289.11865	324.87540	502.96808	335.02008	112.36449	501.16870	342.96057	116.84242	412.53671	420.30432	63.88284	456.82758	204.00842	48.12619	515.51324	158.52037	72.36584	452.48303	203.64973	65.18115	406.95120	395.74857	1024.14819	301.13684	218.39690	990.92328	188.07590	131.27498	649.94403	87.49943	109.22816	614.47174	93.52603	78.89084	676.84174	111.16734	65.95576	633.86664	113.78594	123.67236	570.71948	99.38444	94.00010	542.58997	234.19624	216.50977	332.92142	92.04669	229.22377	287.47833	100.84219	158.02550	312.39276	98.27560	180.07033	267.53143	103.38379	255.22580	176.90939	115.85687	200.63342	189.82307	200.72076	315.07761	143.64503	195.14243	111.75176	84.45390	185.14969	82.02995	89.83432	130.55795	152.50310	78.80032	74.91933
1049	4.19200	393.21384	1020.81079	382.74002	199.03537	958.07629	479.87634	356.11417	689.55688	516.42493	344.85892	646.44415	517.35236	296.39157	696.25934	535.20477	294.48715	651.64221	530.62018	293.40494	474.38162	501.77383	295.83957	475.93558	401.77432	334.36398	380.69327	509.27405	338.50497	336.33789	513.68304	276.36423	370.69812	498.35065	288.21701	324.87595	503.03848	334.88300	112.40478	501.21909	342.81021	116.95124	412.53342	420.19498	64.01767	456.86365	204.01010	48.07236	515.53601	158.39726	72.19043	452.50650	203.50165	65.07469	406.99622	392.72183	1024.08545	301.08911	213.49706	991.76526	187.64742	128.07343	649.85211	87.30139	105.95389	614.47546	93.42003	75.89421	676.92755	111.28230	62.92220	634.10583	113.77287	120.34956	570.59674	99.14428	90.42166	542.38428	234.23924	208.67928	330.40775	91.34990	220.27136	284.79974	100.15462	150.10562	310.69962	98.02238	170.82336	265.92709	102.47067	243.88725	173.58502	114.93861	189.19798	187.41167	199.62048	303.21899	139.65036	193.93948	98.20518	84.24331	183.36273	68.85259	90.15277	128.79578	139.27826	77.70049	73.42066
